<svg xmlns="http://www.w3.org/2000/svg" xmlns:xlink="http://www.w3.org/1999/xlink" width="150" zoomAndPan="magnify" viewBox="0 0 112.5 33.749998" height="45" preserveAspectRatio="xMidYMid meet" version="1.0"><defs><clipPath id="ec4da6b322"><path d="M 41.574219 13.359375 L 43 13.359375 L 43 14.851562 L 41.574219 14.851562 Z M 41.574219 13.359375 " clip-rule="nonzero"/></clipPath><clipPath id="9e8a76d1a4"><path d="M 42 13.359375 L 43.0625 13.359375 L 43.0625 14.851562 L 42 14.851562 Z M 42 13.359375 " clip-rule="nonzero"/></clipPath><clipPath id="a0946e3064"><path d="M 41.574219 13.359375 L 43 13.359375 L 43 14.851562 L 41.574219 14.851562 Z M 41.574219 13.359375 " clip-rule="nonzero"/></clipPath><clipPath id="f8833d20a5"><path d="M 41.574219 14 L 43 14 L 43 14.851562 L 41.574219 14.851562 Z M 41.574219 14 " clip-rule="nonzero"/></clipPath><clipPath id="6850550916"><path d="M 39.25 0 L 72.753906 0 L 72.753906 33.5 L 39.25 33.5 Z M 39.25 0 " clip-rule="nonzero"/></clipPath></defs><g clip-path="url(#ec4da6b322)"><path fill="#64b8b1" d="M 41.632812 13.445312 C 41.59375 13.476562 41.578125 13.519531 41.578125 13.566406 L 41.578125 14.652344 C 41.578125 14.699219 41.59375 14.742188 41.628906 14.773438 L 42.371094 14.082031 Z M 41.632812 13.445312 " fill-opacity="1" fill-rule="nonzero"/></g><g clip-path="url(#9e8a76d1a4)"><path fill="#64b8b1" d="M 42.964844 13.960938 L 42.699219 13.824219 L 42.421875 14.082031 L 42.492188 14.144531 L 42.753906 14.367188 L 42.964844 14.257812 C 43.027344 14.226562 43.0625 14.171875 43.0625 14.109375 C 43.0625 14.046875 43.027344 13.992188 42.964844 13.960938 Z M 42.964844 13.960938 " fill-opacity="1" fill-rule="nonzero"/></g><g clip-path="url(#a0946e3064)"><path fill="#64b8b1" d="M 42.671875 13.800781 L 41.886719 13.394531 C 41.824219 13.359375 41.75 13.363281 41.691406 13.394531 C 41.679688 13.402344 41.664062 13.410156 41.65625 13.421875 L 42.394531 14.058594 Z M 42.671875 13.800781 " fill-opacity="1" fill-rule="nonzero"/></g><g clip-path="url(#f8833d20a5)"><path fill="#64b8b1" d="M 42.394531 14.105469 L 41.652344 14.796875 C 41.664062 14.808594 41.675781 14.816406 41.691406 14.824219 C 41.722656 14.84375 41.753906 14.851562 41.789062 14.851562 C 41.824219 14.851562 41.855469 14.84375 41.886719 14.828125 L 42.730469 14.394531 L 42.46875 14.167969 Z M 42.394531 14.105469 " fill-opacity="1" fill-rule="nonzero"/></g><g clip-path="url(#6850550916)"><path fill="#f0f0f0" d="M 67.554688 0 L 44.449219 0 C 41.585938 0.00390625 39.253906 2.335938 39.25 5.199219 L 39.25 28.304688 C 39.253906 31.167969 41.585938 33.5 44.449219 33.5 L 67.554688 33.5 C 70.417969 33.5 72.75 31.167969 72.753906 28.304688 L 72.753906 5.199219 C 72.75 2.335938 70.417969 0.00390625 67.554688 0 Z M 67.554688 0 " fill-opacity="1" fill-rule="nonzero"/><path fill="#ffffff" d="M 67.554688 0.414062 L 44.449219 0.414062 C 41.816406 0.417969 39.667969 2.566406 39.667969 5.199219 L 39.667969 28.304688 C 39.667969 30.9375 41.816406 33.082031 44.449219 33.085938 L 67.554688 33.085938 C 70.1875 33.082031 72.332031 30.9375 72.335938 28.304688 L 72.335938 5.199219 C 72.335938 2.5625 70.1875 0.417969 67.554688 0.414062 Z M 67.554688 0.414062 " fill-opacity="1" fill-rule="nonzero"/></g><path fill="#3d8cf0" d="M 67.554688 1.246094 L 44.449219 1.246094 C 42.265625 1.25 40.5 3.015625 40.496094 5.199219 L 40.496094 28.304688 C 40.5 30.484375 42.269531 32.253906 44.449219 32.257812 L 67.554688 32.257812 C 69.734375 32.253906 71.503906 30.484375 71.507812 28.304688 L 71.507812 5.199219 C 71.503906 3.015625 69.734375 1.246094 67.554688 1.246094 Z M 68.664062 24.9375 L 66.441406 24.9375 L 67.5625 26.875 C 68.175781 27.945312 67.8125 29.308594 66.746094 29.925781 C 65.679688 30.539062 64.3125 30.175781 63.699219 29.105469 L 61.292969 24.941406 L 50.394531 24.941406 L 48.304688 28.5625 C 47.6875 29.628906 46.324219 29.992188 45.257812 29.378906 C 44.191406 28.761719 43.828125 27.398438 44.441406 26.332031 L 45.246094 24.9375 L 43.339844 24.9375 C 42.835938 24.9375 42.34375 24.765625 41.949219 24.449219 C 41.886719 24.398438 41.824219 24.34375 41.765625 24.285156 C 40.894531 23.414062 40.894531 22.003906 41.765625 21.132812 C 42.183594 20.714844 42.75 20.476562 43.339844 20.476562 L 47.824219 20.476562 L 53.273438 11.042969 L 51.039062 7.171875 C 50.421875 6.105469 50.785156 4.742188 51.855469 4.125 C 52.921875 3.511719 54.285156 3.875 54.898438 4.941406 L 55.847656 6.582031 L 57.109375 4.398438 C 57.71875 3.328125 59.082031 2.953125 60.152344 3.566406 C 61.222656 4.175781 61.59375 5.539062 60.984375 6.609375 C 60.980469 6.613281 60.976562 6.621094 60.972656 6.628906 L 58.421875 11.042969 L 63.871094 20.480469 L 68.667969 20.480469 C 69.898438 20.480469 70.898438 21.476562 70.898438 22.710938 C 70.898438 23.941406 69.898438 24.941406 68.667969 24.941406 L 68.664062 24.941406 Z M 68.664062 24.9375 " fill-opacity="1" fill-rule="nonzero"/><path fill="#3d8cf0" d="M 49.4375 24.9375 L 47.585938 28.144531 C 47.222656 28.824219 46.371094 29.082031 45.691406 28.714844 C 45.011719 28.347656 44.753906 27.5 45.121094 26.820312 C 45.136719 26.792969 45.148438 26.769531 45.164062 26.746094 L 46.207031 24.9375 Z M 49.4375 24.9375 " fill-opacity="1" fill-rule="nonzero"/><path fill="#3d8cf0" d="M 70.066406 22.707031 C 70.0625 23.480469 69.4375 24.105469 68.664062 24.109375 L 65.964844 24.109375 L 64.347656 21.308594 L 68.667969 21.308594 C 69.4375 21.3125 70.0625 21.9375 70.066406 22.707031 Z M 70.066406 22.707031 " fill-opacity="1" fill-rule="nonzero"/><path fill="#3d8cf0" d="M 55.363281 7.414062 L 53.75 10.210938 L 51.753906 6.757812 C 51.386719 6.074219 51.644531 5.226562 52.324219 4.859375 C 52.976562 4.511719 53.785156 4.726562 54.175781 5.355469 Z M 55.363281 7.414062 " fill-opacity="1" fill-rule="nonzero"/><path fill="#3d8cf0" d="M 60.8125 24.109375 L 50.1875 24.109375 C 50.167969 24.109375 50.152344 24.109375 50.132812 24.109375 L 45.992188 24.109375 C 45.976562 24.109375 45.957031 24.109375 45.941406 24.109375 L 43.339844 24.109375 C 43.019531 24.109375 42.710938 24 42.464844 23.800781 C 42.425781 23.769531 42.386719 23.734375 42.347656 23.699219 C 41.800781 23.152344 41.800781 22.265625 42.347656 21.71875 C 42.613281 21.457031 42.96875 21.308594 43.339844 21.308594 L 59.195312 21.308594 Z M 60.8125 24.109375 " fill-opacity="1" fill-rule="nonzero"/><path fill="#3d8cf0" d="M 60.25 6.210938 L 57.582031 10.835938 C 57.578125 10.835938 57.578125 10.839844 57.574219 10.84375 L 57.574219 10.847656 L 55.484375 14.464844 L 52.015625 20.476562 L 48.78125 20.476562 L 54.09375 11.273438 C 54.105469 11.257812 54.113281 11.246094 54.121094 11.230469 L 56.195312 7.636719 C 56.203125 7.628906 56.207031 7.617188 56.214844 7.609375 L 57.828125 4.808594 C 58.21875 4.140625 59.070312 3.914062 59.738281 4.300781 C 60.410156 4.6875 60.636719 5.542969 60.25 6.210938 Z M 60.25 6.210938 " fill-opacity="1" fill-rule="nonzero"/><path fill="#3d8cf0" d="M 66.980469 28.351562 C 66.78125 29.097656 66.011719 29.542969 65.265625 29.339844 C 64.90625 29.246094 64.601562 29.011719 64.417969 28.691406 L 61.898438 24.328125 C 61.898438 24.328125 61.894531 24.324219 61.894531 24.324219 L 61.878906 24.300781 L 59.804688 20.699219 L 59.789062 20.675781 L 56.328125 14.675781 L 57.941406 11.875 L 63.261719 21.089844 L 65.355469 24.714844 L 65.359375 24.726562 L 66.839844 27.289062 C 67.027344 27.613281 67.078125 27.992188 66.980469 28.351562 Z M 66.980469 28.351562 " fill-opacity="1" fill-rule="nonzero"/><path fill="#3d8cf0" d="M 58.714844 20.476562 L 52.972656 20.476562 L 55.84375 15.503906 Z M 58.714844 20.476562 " fill-opacity="1" fill-rule="nonzero"/></svg>