<svg xmlns="http://www.w3.org/2000/svg" xmlns:xlink="http://www.w3.org/1999/xlink" width="40" zoomAndPan="magnify" viewBox="0 0 30 30.000001" height="40" preserveAspectRatio="xMidYMid meet" version="1.0"><defs><clipPath id="803e1853d2"><path d="M 12.714844 12.230469 L 17.070312 12.230469 L 17.070312 16.585938 L 12.714844 16.585938 Z M 12.714844 12.230469 " clip-rule="nonzero"/></clipPath><clipPath id="a55c77184c"><path d="M 0.554688 0 L 29.515625 0 L 29.515625 29 L 0.554688 29 Z M 0.554688 0 " clip-rule="nonzero"/></clipPath></defs><g clip-path="url(#803e1853d2)"><path fill="#000000" d="M 14.902344 12.230469 C 14.304688 12.230469 14.230469 12.230469 14.003906 12.242188 C 13.777344 12.242188 13.609375 12.289062 13.476562 12.335938 C 13.332031 12.398438 13.210938 12.46875 13.089844 12.589844 C 12.972656 12.710938 12.898438 12.828125 12.839844 12.972656 C 12.78125 13.117188 12.742188 13.273438 12.742188 13.5 C 12.71875 13.753906 12.71875 13.824219 12.71875 14.414062 C 12.71875 15.011719 12.71875 15.085938 12.730469 15.3125 C 12.730469 15.539062 12.78125 15.707031 12.828125 15.839844 C 12.886719 15.984375 12.960938 16.105469 13.078125 16.226562 C 13.199219 16.34375 13.320312 16.417969 13.464844 16.476562 C 13.609375 16.535156 13.761719 16.574219 13.992188 16.574219 C 14.21875 16.574219 14.304688 16.585938 14.890625 16.585938 C 15.480469 16.585938 15.5625 16.585938 15.789062 16.574219 C 16.019531 16.574219 16.1875 16.523438 16.320312 16.476562 C 16.460938 16.417969 16.582031 16.34375 16.703125 16.226562 C 16.824219 16.105469 16.894531 15.984375 16.953125 15.839844 C 17.003906 15.695312 17.050781 15.539062 17.050781 15.3125 C 17.050781 15.085938 17.0625 15 17.0625 14.414062 C 17.0625 13.8125 17.0625 13.742188 17.050781 13.511719 C 17.050781 13.285156 17.003906 13.117188 16.953125 12.984375 C 16.894531 12.839844 16.824219 12.722656 16.703125 12.601562 C 16.582031 12.480469 16.460938 12.410156 16.320312 12.351562 C 16.175781 12.289062 16.019531 12.253906 15.789062 12.253906 C 15.574219 12.230469 15.503906 12.230469 14.902344 12.230469 Z M 14.710938 12.625 C 14.769531 12.625 14.832031 12.625 14.902344 12.625 C 15.492188 12.625 15.550781 12.625 15.789062 12.636719 C 16.007812 12.636719 16.113281 12.6875 16.199219 12.710938 C 16.308594 12.746094 16.378906 12.792969 16.449219 12.878906 C 16.523438 12.949219 16.570312 13.023438 16.617188 13.128906 C 16.644531 13.203125 16.679688 13.320312 16.691406 13.539062 C 16.691406 13.765625 16.703125 13.835938 16.703125 14.425781 C 16.703125 15.011719 16.703125 15.074219 16.691406 15.3125 C 16.691406 15.527344 16.644531 15.636719 16.617188 15.722656 C 16.582031 15.828125 16.535156 15.902344 16.449219 15.972656 C 16.378906 16.042969 16.308594 16.09375 16.199219 16.140625 C 16.125 16.175781 16.007812 16.199219 15.789062 16.210938 C 15.5625 16.210938 15.492188 16.226562 14.902344 16.226562 C 14.316406 16.226562 14.253906 16.226562 14.015625 16.210938 C 13.800781 16.210938 13.691406 16.164062 13.609375 16.140625 C 13.5 16.105469 13.425781 16.058594 13.355469 15.972656 C 13.285156 15.902344 13.234375 15.828125 13.1875 15.722656 C 13.164062 15.648438 13.128906 15.527344 13.117188 15.3125 C 13.117188 15.085938 13.105469 15.011719 13.105469 14.425781 C 13.105469 13.835938 13.105469 13.777344 13.117188 13.539062 C 13.117188 13.320312 13.164062 13.214844 13.1875 13.128906 C 13.222656 13.023438 13.273438 12.949219 13.355469 12.878906 C 13.425781 12.804688 13.5 12.757812 13.609375 12.710938 C 13.679688 12.671875 13.800781 12.648438 14.015625 12.636719 C 14.21875 12.636719 14.292969 12.636719 14.699219 12.625 Z M 14.902344 13.296875 C 14.277344 13.296875 13.777344 13.800781 13.777344 14.425781 C 13.777344 15.050781 14.277344 15.554688 14.902344 15.554688 C 15.527344 15.554688 16.03125 15.050781 16.03125 14.425781 C 16.03125 13.800781 15.527344 13.296875 14.902344 13.296875 Z M 14.902344 13.695312 C 15.3125 13.695312 15.636719 14.015625 15.636719 14.425781 C 15.636719 14.832031 15.3125 15.15625 14.902344 15.15625 C 14.496094 15.15625 14.171875 14.832031 14.171875 14.425781 C 14.171875 14.015625 14.496094 13.695312 14.902344 13.695312 Z M 14.902344 13.695312 " fill-opacity="1" fill-rule="nonzero"/></g><g clip-path="url(#a55c77184c)"><path fill="#000000" d="M 29.589844 14.511719 C 29.589844 15.460938 29.496094 16.40625 29.308594 17.335938 C 29.125 18.269531 28.847656 19.175781 28.484375 20.054688 C 28.117188 20.933594 27.671875 21.765625 27.140625 22.558594 C 26.613281 23.347656 26.011719 24.082031 25.335938 24.753906 C 24.664062 25.425781 23.929688 26.027344 23.136719 26.554688 C 22.34375 27.082031 21.507812 27.527344 20.628906 27.894531 C 19.746094 28.257812 18.839844 28.53125 17.90625 28.714844 C 16.96875 28.902344 16.027344 28.996094 15.074219 28.996094 C 14.121094 28.996094 13.175781 28.902344 12.242188 28.71875 C 11.304688 28.53125 10.398438 28.257812 9.519531 27.894531 C 8.636719 27.527344 7.800781 27.082031 7.007812 26.554688 C 6.214844 26.027344 5.480469 25.425781 4.808594 24.753906 C 4.132812 24.082031 3.53125 23.347656 3.003906 22.558594 C 2.472656 21.765625 2.027344 20.933594 1.660156 20.054688 C 1.296875 19.175781 1.023438 18.269531 0.835938 17.335938 C 0.648438 16.40625 0.558594 15.460938 0.558594 14.511719 C 0.558594 13.5625 0.648438 12.617188 0.835938 11.6875 C 1.023438 10.753906 1.296875 9.847656 1.660156 8.96875 C 2.027344 8.089844 2.472656 7.257812 3.003906 6.464844 C 3.53125 5.675781 4.132812 4.941406 4.808594 4.269531 C 5.480469 3.597656 6.214844 2.996094 7.007812 2.46875 C 7.800781 1.941406 8.636719 1.496094 9.519531 1.132812 C 10.398438 0.765625 11.304688 0.492188 12.242188 0.308594 C 13.175781 0.121094 14.121094 0.0273438 15.074219 0.0273438 C 16.027344 0.0273438 16.96875 0.121094 17.90625 0.308594 C 18.839844 0.492188 19.746094 0.765625 20.628906 1.132812 C 21.507812 1.496094 22.34375 1.941406 23.136719 2.46875 C 23.929688 2.996094 24.664062 3.597656 25.335938 4.269531 C 26.011719 4.941406 26.613281 5.675781 27.140625 6.464844 C 27.671875 7.257812 28.117188 8.089844 28.484375 8.96875 C 28.847656 9.847656 29.125 10.753906 29.308594 11.6875 C 29.496094 12.617188 29.589844 13.5625 29.589844 14.511719 Z M 29.589844 14.511719 " fill-opacity="1" fill-rule="nonzero"/></g><path stroke-linecap="round" transform="matrix(0.0865601, 0, 0, 0.0863234, -2643.889395, -805.909346)" fill-opacity="1" fill="#ffffff" fill-rule="evenodd" stroke-linejoin="round" d="M 30640.407229 9422.360205 L 30685.715339 9422.043445 L 30795.691298 9582.142683 L 30750.022168 9581.735421 Z M 30640.407229 9422.360205 " stroke="#ffffff" stroke-width="2.14" stroke-opacity="1" stroke-miterlimit="1.5"/><path stroke-linecap="round" transform="matrix(0.0865601, 0, 0, 0.0863234, -2643.889395, -805.909346)" fill-opacity="1" fill="#ffffff" fill-rule="evenodd" stroke-linejoin="round" d="M 30776.782834 9422.043445 L 30790.907773 9422.043445 L 30653.990637 9582.142683 L 30640.407229 9582.142683 Z M 30776.782834 9422.043445 " stroke="#ffffff" stroke-width="2.14" stroke-opacity="1" stroke-miterlimit="1.5"/><path fill="#000000" d="M 9.964844 8.503906 L 11.785156 8.515625 L 20.1875 20.519531 L 18.371094 20.515625 Z M 9.964844 8.503906 " fill-opacity="1" fill-rule="evenodd"/><path fill="#000000" d="M 9.964844 8.503906 L 11.785156 8.515625 L 20.1875 20.519531 L 18.371094 20.515625 Z M 10.105469 8.578125 C 10.105469 8.578125 18.40625 20.441406 18.40625 20.441406 C 18.40625 20.441406 20.050781 20.445312 20.050781 20.445312 L 11.738281 8.589844 Z M 10.105469 8.578125 " fill-opacity="1" fill-rule="evenodd"/></svg>