<svg xmlns="http://www.w3.org/2000/svg" xmlns:xlink="http://www.w3.org/1999/xlink" width="40" zoomAndPan="magnify" viewBox="0 0 30 30.000001" height="40" preserveAspectRatio="xMidYMid meet" version="1.0"><defs><clipPath id="f8792f4d5b"><path d="M 12.714844 12.230469 L 17.070312 12.230469 L 17.070312 16.585938 L 12.714844 16.585938 Z M 12.714844 12.230469 " clip-rule="nonzero"/></clipPath><clipPath id="4f9c57e023"><path d="M 0.484375 0 L 29.515625 0 L 29.515625 29.03125 L 0.484375 29.03125 Z M 0.484375 0 " clip-rule="nonzero"/></clipPath></defs><g clip-path="url(#f8792f4d5b)"><path fill="#000000" d="M 14.902344 12.230469 C 14.304688 12.230469 14.230469 12.230469 14.003906 12.242188 C 13.777344 12.242188 13.609375 12.289062 13.476562 12.335938 C 13.332031 12.398438 13.210938 12.46875 13.089844 12.589844 C 12.972656 12.710938 12.898438 12.828125 12.839844 12.972656 C 12.78125 13.117188 12.742188 13.273438 12.742188 13.5 C 12.71875 13.753906 12.71875 13.824219 12.71875 14.414062 C 12.71875 15.011719 12.71875 15.085938 12.730469 15.3125 C 12.730469 15.539062 12.78125 15.707031 12.828125 15.839844 C 12.886719 15.984375 12.960938 16.105469 13.078125 16.226562 C 13.199219 16.34375 13.320312 16.417969 13.464844 16.476562 C 13.609375 16.535156 13.761719 16.574219 13.992188 16.574219 C 14.21875 16.574219 14.304688 16.585938 14.890625 16.585938 C 15.480469 16.585938 15.5625 16.585938 15.789062 16.574219 C 16.019531 16.574219 16.1875 16.523438 16.320312 16.476562 C 16.460938 16.417969 16.582031 16.34375 16.703125 16.226562 C 16.824219 16.105469 16.894531 15.984375 16.953125 15.839844 C 17.003906 15.695312 17.050781 15.539062 17.050781 15.3125 C 17.050781 15.085938 17.0625 15 17.0625 14.414062 C 17.0625 13.8125 17.0625 13.742188 17.050781 13.511719 C 17.050781 13.285156 17.003906 13.117188 16.953125 12.984375 C 16.894531 12.839844 16.824219 12.722656 16.703125 12.601562 C 16.582031 12.480469 16.460938 12.410156 16.320312 12.351562 C 16.175781 12.289062 16.019531 12.253906 15.789062 12.253906 C 15.574219 12.230469 15.503906 12.230469 14.902344 12.230469 Z M 14.710938 12.625 C 14.769531 12.625 14.832031 12.625 14.902344 12.625 C 15.492188 12.625 15.550781 12.625 15.789062 12.636719 C 16.007812 12.636719 16.113281 12.6875 16.199219 12.710938 C 16.308594 12.746094 16.378906 12.792969 16.449219 12.878906 C 16.523438 12.949219 16.570312 13.023438 16.617188 13.128906 C 16.644531 13.203125 16.679688 13.320312 16.691406 13.539062 C 16.691406 13.765625 16.703125 13.835938 16.703125 14.425781 C 16.703125 15.011719 16.703125 15.074219 16.691406 15.3125 C 16.691406 15.527344 16.644531 15.636719 16.617188 15.722656 C 16.582031 15.828125 16.535156 15.902344 16.449219 15.972656 C 16.378906 16.042969 16.308594 16.09375 16.199219 16.140625 C 16.125 16.175781 16.007812 16.199219 15.789062 16.210938 C 15.5625 16.210938 15.492188 16.226562 14.902344 16.226562 C 14.316406 16.226562 14.253906 16.226562 14.015625 16.210938 C 13.800781 16.210938 13.691406 16.164062 13.609375 16.140625 C 13.5 16.105469 13.425781 16.058594 13.355469 15.972656 C 13.285156 15.902344 13.234375 15.828125 13.1875 15.722656 C 13.164062 15.648438 13.128906 15.527344 13.117188 15.3125 C 13.117188 15.085938 13.105469 15.011719 13.105469 14.425781 C 13.105469 13.835938 13.105469 13.777344 13.117188 13.539062 C 13.117188 13.320312 13.164062 13.214844 13.1875 13.128906 C 13.222656 13.023438 13.273438 12.949219 13.355469 12.878906 C 13.425781 12.804688 13.5 12.757812 13.609375 12.710938 C 13.679688 12.671875 13.800781 12.648438 14.015625 12.636719 C 14.21875 12.636719 14.292969 12.636719 14.699219 12.625 Z M 14.902344 13.296875 C 14.277344 13.296875 13.777344 13.800781 13.777344 14.425781 C 13.777344 15.050781 14.277344 15.554688 14.902344 15.554688 C 15.527344 15.554688 16.03125 15.050781 16.03125 14.425781 C 16.03125 13.800781 15.527344 13.296875 14.902344 13.296875 Z M 14.902344 13.695312 C 15.3125 13.695312 15.636719 14.015625 15.636719 14.425781 C 15.636719 14.832031 15.3125 15.15625 14.902344 15.15625 C 14.496094 15.15625 14.171875 14.832031 14.171875 14.425781 C 14.171875 14.015625 14.496094 13.695312 14.902344 13.695312 Z M 14.902344 13.695312 " fill-opacity="1" fill-rule="nonzero"/></g><g clip-path="url(#4f9c57e023)"><path fill="#e52d27" d="M 29.515625 24.621094 C 29.515625 27.054688 27.539062 29.03125 25.105469 29.03125 L 4.894531 29.03125 C 2.460938 29.03125 0.484375 27.054688 0.484375 24.621094 L 0.484375 4.414062 C 0.484375 1.980469 2.460938 0 4.894531 0 L 25.105469 0 C 27.539062 0 29.515625 1.980469 29.515625 4.414062 Z M 29.515625 24.621094 " fill-opacity="1" fill-rule="nonzero"/></g><path fill="#ffffff" d="M 25.289062 14.746094 C 25.289062 16.351562 25.289062 18.050781 24.933594 19.605469 C 24.679688 20.703125 23.785156 21.503906 22.707031 21.625 C 20.15625 21.910156 17.570312 21.914062 15.003906 21.910156 C 12.429688 21.910156 9.851562 21.910156 7.300781 21.625 C 6.222656 21.503906 5.324219 20.703125 5.074219 19.605469 C 4.714844 18.050781 4.714844 16.351562 4.714844 14.746094 C 4.714844 13.140625 4.71875 11.4375 5.074219 9.882812 C 5.324219 8.789062 6.21875 7.984375 7.300781 7.863281 C 9.851562 7.578125 12.433594 7.578125 15.003906 7.578125 C 17.570312 7.578125 20.152344 7.578125 22.707031 7.863281 C 23.78125 7.984375 24.679688 8.789062 24.933594 9.882812 C 25.289062 11.4375 25.289062 13.140625 25.289062 14.746094 Z M 25.289062 14.746094 " fill-opacity="1" fill-rule="nonzero"/><path fill="#e52d27" d="M 12.835938 10.917969 L 12.835938 18.609375 L 18.808594 14.761719 Z M 12.835938 10.917969 " fill-opacity="1" fill-rule="nonzero"/></svg>